<svg xmlns="http://www.w3.org/2000/svg" xmlns:xlink="http://www.w3.org/1999/xlink" width="30px" height="30px" viewBox="0 0 30 30" version="1.1">
    <title>矩形</title>
    <g id="页面-1" stroke="none" stroke-width="1" fill="none" fill-rule="evenodd">
        <g id="logo/悬浮按钮" transform="translate(-20.000000, -49.000000)">
            <g id="logo" transform="translate(20.000000, 49.000000)">
                <rect id="矩形" fill="#D8D8D8" opacity="0" x="0" y="0" width="30" height="30"/>
                <g transform="translate(3.999973, 3.199480)">
                    <path d="M17.6699015,2.61856509e-15 L19.7050243,0.539932795 C19.4238274,2.48842226 20.3850782,3.96274806 21.4050153,5.4318421 L21.8044895,6.00747857 C23.084407,7.86815297 24.2121538,9.81774962 22.814856,12.7962521 C22.5666063,13.3241105 22.114142,14.3592381 21.6488511,14.9317815 C21.2190418,15.4597639 20.5218671,15.7743282 20.1402353,15.4054451 C19.7586035,15.036562 20.1296324,14.7636887 20.2429358,14.6231734 C20.8501237,13.8701585 21.5731642,12.3645544 21.5289531,11.2079946 C21.453579,9.34433771 20.1908422,8.04914411 19.1181348,6.73334746 L19.1181348,6.73334746 L16.1386637,18.7073349 C16.1050984,18.9142718 16.060469,19.1210231 16.0044227,19.3270754 C14.9916278,23.0499073 10.6354242,25.1348052 6.27444851,23.9839339 C1.91354342,22.8327991 -0.80073437,18.8817566 0.211889864,15.158879 C1.22468376,11.4360468 5.58088736,9.35114892 9.94186315,10.5020199 C11.8316364,11.0008577 13.4121941,12.0254825 14.5142506,13.3294802 L17.6699015,2.61856509e-15 Z" id="形状结合" fill="#000000" fill-rule="nonzero"/>
                    <path d="M7.09475007,11.6356502 C7.69103823,11.6639108 8.83282705,11.6730208 10.1011717,12.4066614 C11.3695164,13.1403021 11.7817359,13.5898365 12.4389421,14.4613498 C13.0961484,15.3328632 13.1536544,16.4438894 12.9820238,17.3714831 C12.8053099,18.2990768 11.9884248,18.8445019 11.5215356,19.0442489 C11.0546465,19.2439959 9.632591,19.402784 7.80605295,19.220119 C5.9795149,19.037454 3.99227216,18.8763421 2.44515401,18.166163 C1.72002475,17.8333043 1.0464718,17.0627855 1.16731546,16.0699489 C1.2368228,15.4988853 1.22394875,15.4311024 1.69066788,14.6309889 C2.157387,13.8308753 2.87599474,13.1394373 3.66225321,12.6376061 C4.50666527,12.0986582 6.02495152,11.5857458 7.09475007,11.6356502 Z" id="形状结合" fill="#00DEA9"/>
                    <path d="M9.62191568,14.8724452 C9.58090421,14.6285158 9.35704821,14.4241379 9.12291325,14.421816 L8.6903727,14.4271957 C8.49316236,14.4336549 8.39041576,14.579002 8.34223334,14.8556948 C8.29413559,15.1367829 8.22691228,16.2832642 8.25635747,16.5756808 C8.2856149,16.8656824 8.47110514,17.0439987 8.70246028,17.0224615 L9.12075579,16.978327 C9.35140809,16.9511043 9.54745149,16.7247681 9.55882509,16.4759655 L9.62784407,14.9680793 C9.62929086,14.936527 9.62730438,14.9044759 9.62191568,14.8724452 Z" id="路径" fill="#000000" transform="translate(8.938727, 15.723016) rotate(3.000000) translate(-8.938727, -15.723016) "/>
                    <path d="M4.24086518,14.1336231 L4.17608177,14.1407775 C3.88875049,14.1856859 3.63540414,14.381629 3.61108534,14.5785698 L3.42521663,15.9121937 C3.40588692,16.1022661 3.60550484,16.3087942 3.86994067,16.3760457 C4.13392457,16.4453193 4.37078468,16.321767 4.39961712,16.0974725 L4.64129064,14.4771243 C4.67093414,14.2454618 4.46284833,14.0949252 4.17608177,14.1407775 L4.24086518,14.1336231 Z" id="路径" fill="#000000"/>
                </g>
            </g>
        </g>
    </g>
</svg>